{"accessors":[{"name":"Node-Mesh_0_positions","componentType":5126,"count":8281,"min":[-7.148881435394287,0,-7.148881435394287],"max":[7.148881435394287,64,7.148881435394287],"type":"VEC3","bufferView":0,"byteOffset":0},{"name":"Node-Mesh_0_normals","componentType":5126,"count":8281,"min":[0,0,1],"max":[0,0,1],"type":"VEC3","bufferView":1,"byteOffset":0},{"name":"Node-Mesh_0_texcoords","componentType":5126,"count":8281,"min":[0,0],"max":[0.800000011920929,0.625],"type":"VEC2","bufferView":2,"byteOffset":0},{"name":"Node-Mesh_0_indices","componentType":5123,"count":48300,"min":[1],"max":[8280],"type":"SCALAR","bufferView":3,"byteOffset":0}],"asset":{"generator":"obj2gltf","version":"2.0"},"buffers":[{"name":"longBox","byteLength":366476,"uri":"data:application/octet-stream;base64,"}],"bufferViews":[{"name":"bufferView_0","buffer":0,"byteLength":99372,"byteOffset":0,"byteStride":12,"target":34962},{"name":"bufferView_1","buffer":0,"byteLength":99372,"byteOffset":99372,"byteStride":12,"target":34962},{"name":"bufferView_2","buffer":0,"byteLength":66248,"byteOffset":198744,"byteStride":8,"target":34962},{"name":"bufferView_3","buffer":0,"byteLength":96600,"byteOffset":264992,"target":34963},{"buffer":0,"byteOffset":361592,"byteLength":4883}],"images":[{"name":"color","mimeType":"image/jpeg","bufferView":4}],"materials":[{"name":"imageMat2","pbrMetallicRoughness":{"baseColorTexture":{"index":0},"baseColorFactor":[1,1,1,1],"metallicFactor":0,"roughnessFactor":1},"emissiveFactor":[0,0,0],"alphaMode":"OPAQUE","doubleSided":false}],"meshes":[{"name":"Node-Mesh","primitives":[{"attributes":{"POSITION":0,"NORMAL":1,"TEXCOORD_0":2},"indices":3,"material":0,"mode":4}]}],"nodes":[{"name":"Node","mesh":0}],"samplers":[{"magFilter":9729,"minFilter":9986,"wrapS":10497,"wrapT":10497}],"scene":0,"scenes":[{"nodes":[0]}],"textures":[{"name":"color","sampler":0,"source":0}]}